# xmcd CD database file
#
# Track frame offsets:
#	150
#	24603
#	57287
#	83213
#	92352
#	131050
#	164618
#	186206
#
# Disc length: 2547 seconds
#
# Revision: 6
# Processed by: cddbd v1.5.2PL0 Copyright (c) Steve Scherf et al.
# Submitted via: CDex 1.51
#
DISCID=6409f108
DTITLE=Miles Davis Quintet - Workin' with the Miles Davis Quintet
DYEAR=1956
DGENRE=Jazz
TTITLE0=It Never Entered My Mind
TTITLE1=Four
TTITLE2=In Your Own Sweet Way
TTITLE3=The Theme (take 1)
TTITLE4=Trane's Blues
TTITLE5=Ahmad's Blues
TTITLE6=Half Nelson
TTITLE7=The Theme (take 2)
EXTD=YEAR: 1956
EXTT0=
EXTT1=
EXTT2=
EXTT3=
EXTT4=
EXTT5=
EXTT6=
EXTT7=
PLAYORDER=
